<svg width="21" height="21" viewBox="0 0 21 21" fill="none" xmlns="http://www.w3.org/2000/svg">
<path id="Vector" d="M21 10.5C21 12.5767 20.3842 14.6068 19.2304 16.3335C18.0767 18.0602 16.4368 19.406 14.5182 20.2007C12.5996 20.9954 10.4884 21.2034 8.45156 20.7982C6.41475 20.3931 4.54383 19.3931 3.07538 17.9246C1.60693 16.4562 0.606905 14.5852 0.201759 12.5484C-0.203384 10.5116 0.00455093 8.40045 0.799271 6.48182C1.59399 4.5632 2.9398 2.92332 4.66652 1.76957C6.39323 0.615814 8.4233 0 10.5 0C13.2848 0 15.9555 1.10625 17.9246 3.07538C19.8938 5.04451 21 7.71523 21 10.5ZM16.5 9.75H7.3875L11.5725 5.54475L10.5 4.5L4.5 10.5L10.5 16.5L11.5725 15.4297L7.3875 11.25H16.5V9.75Z" fill="white"/>
</svg>
